<mxfile host="app.diagrams.net" modified="2021-07-16T15:45:11.104Z" agent="5.0 (Windows NT 10.0; Win64; x64) AppleWebKit/537.36 (KHTML, like Gecko) Chrome/91.0.4472.124 Safari/537.36" etag="CUuQMLhu2uq3zp0j0kuC" version="14.8.4" type="github">
  <diagram id="dVXUt_YN8yqCxRVQCd2n" name="Page-1">
    <mxGraphModel dx="1038" dy="489" grid="1" gridSize="10" guides="1" tooltips="1" connect="1" arrows="1" fold="1" page="1" pageScale="1" pageWidth="850" pageHeight="1100" math="0" shadow="0">
      <root>
        <mxCell id="0" />
        <mxCell id="1" parent="0" />
        <mxCell id="CdA6uI-bimzktIpL5qC4-1" value="" style="rounded=1;whiteSpace=wrap;html=1;" vertex="1" parent="1">
          <mxGeometry x="60" y="60" width="710" height="310" as="geometry" />
        </mxCell>
        <mxCell id="CdA6uI-bimzktIpL5qC4-2" value="KUBERNET CLUSTOR HAS 10 WORKER NODE" style="text;html=1;strokeColor=none;fillColor=none;align=center;verticalAlign=middle;whiteSpace=wrap;rounded=0;" vertex="1" parent="1">
          <mxGeometry x="120" y="30" width="610" height="20" as="geometry" />
        </mxCell>
        <mxCell id="CdA6uI-bimzktIpL5qC4-3" value="Productions" style="rounded=1;whiteSpace=wrap;html=1;" vertex="1" parent="1">
          <mxGeometry x="110" y="90" width="100" height="40" as="geometry" />
        </mxCell>
        <mxCell id="CdA6uI-bimzktIpL5qC4-4" value="Testing" style="rounded=1;whiteSpace=wrap;html=1;" vertex="1" parent="1">
          <mxGeometry x="110" y="160" width="100" height="40" as="geometry" />
        </mxCell>
        <mxCell id="CdA6uI-bimzktIpL5qC4-5" value="Development&lt;span style=&quot;color: rgba(0 , 0 , 0 , 0) ; font-family: monospace ; font-size: 0px&quot;&gt;%3CmxGraphModel%3E%3Croot%3E%3CmxCell%20id%3D%220%22%2F%3E%3CmxCell%20id%3D%221%22%20parent%3D%220%22%2F%3E%3CmxCell%20id%3D%222%22%20value%3D%22Testing%22%20style%3D%22rounded%3D1%3BwhiteSpace%3Dwrap%3Bhtml%3D1%3B%22%20vertex%3D%221%22%20parent%3D%221%22%3E%3CmxGeometry%20x%3D%22110%22%20y%3D%22160%22%20width%3D%22100%22%20height%3D%2240%22%20as%3D%22geometry%22%2F%3E%3C%2FmxCell%3E%3C%2Froot%3E%3C%2FmxGraphModel%3E&lt;/span&gt;" style="rounded=1;whiteSpace=wrap;html=1;" vertex="1" parent="1">
          <mxGeometry x="110" y="230" width="100" height="40" as="geometry" />
        </mxCell>
        <mxCell id="CdA6uI-bimzktIpL5qC4-6" value="UAT" style="rounded=1;whiteSpace=wrap;html=1;" vertex="1" parent="1">
          <mxGeometry x="110" y="300" width="100" height="40" as="geometry" />
        </mxCell>
        <mxCell id="CdA6uI-bimzktIpL5qC4-10" value="" style="line;strokeWidth=2;html=1;" vertex="1" parent="1">
          <mxGeometry x="210" y="105" width="350" height="10" as="geometry" />
        </mxCell>
        <mxCell id="CdA6uI-bimzktIpL5qC4-11" value="" style="line;strokeWidth=2;html=1;" vertex="1" parent="1">
          <mxGeometry x="210" y="175" width="350" height="10" as="geometry" />
        </mxCell>
        <mxCell id="CdA6uI-bimzktIpL5qC4-12" value="" style="line;strokeWidth=2;html=1;" vertex="1" parent="1">
          <mxGeometry x="210" y="245" width="350" height="10" as="geometry" />
        </mxCell>
        <mxCell id="CdA6uI-bimzktIpL5qC4-13" value="" style="line;strokeWidth=2;html=1;" vertex="1" parent="1">
          <mxGeometry x="210" y="315" width="350" height="10" as="geometry" />
        </mxCell>
        <mxCell id="CdA6uI-bimzktIpL5qC4-15" value="&lt;b&gt;all the environment need to deploy in same cluster&lt;/b&gt;" style="shape=ext;double=1;rounded=1;whiteSpace=wrap;html=1;" vertex="1" parent="1">
          <mxGeometry x="560" y="90" width="170" height="250" as="geometry" />
        </mxCell>
      </root>
    </mxGraphModel>
  </diagram>
</mxfile>
